#!OML:ASF G:\JayActor3\Patient Classification 1\Patient 1\Session 2\male.ASF
:FULLY-SPECIFIED
:DEGREES
2844
root 48.9291 16.6372 -5.98392 3347.47 -88.3128 973.324
lowerback 0.714267 -0.209776 -0.64973
upperback 4.38216 -0.321048 -0.718082
thorax 4.10779 -0.201435 -0.387501
lowerneck -10.4447 -1.77731 -2.17438
upperneck 0.368505 -2.4016 5.86149
head 2.04956 -1.07356 2.15537
rclavicle -1.88845e-015 7.95139e-016
rhumerus -30.1164 -0.572597 -87.5092
rradius 27.7529
rwrist -4.65927
rhand -24.6982 2.90398
rfingers 7.12502
rthumb 1.80305 -27.0682
lclavicle -1.88845e-015 7.95139e-016
lhumerus -22.6066 -10.6119 88.0506
lradius 41.5375
lwrist 17.3638
lhand -19.908 16.875
lfingers 7.12502
lthumb 6.42862 46.7574
rfemur -11.7262 0.0974506 21.3824
rtibia 34.5241
rfoot -23.1184 -5.73895
rtoes 14.2704
lfemur -10.7828 3.15665 -10.2388
ltibia 28.4418
lfoot -12.361 2.78431
ltoes -11.4195
2845
root 48.9406 16.6355 -6.01675 3338.32 -88.3538 982.482
lowerback 0.723848 -0.238933 -0.526983
upperback 4.40989 -0.363355 -0.687426
thorax 4.13057 -0.218865 -0.425979
lowerneck -10.4659 -1.79823 -2.15226
upperneck 0.336561 -2.43159 5.86607
head 2.04376 -1.08874 2.15108
rclavicle -3.97569e-016 3.97569e-015
rhumerus -30.0325 -0.723958 -87.4475
rradius 27.4567
rwrist -4.46051
rhand -24.7309 2.98147
rfingers 7.12502
rthumb 1.77143 -26.9909
lclavicle -3.97569e-016 3.97569e-015
lhumerus -22.5922 -10.3578 88.1242
lradius 40.9803
lwrist 17.2004
lhand -19.8245 16.9816
lfingers 7.12502
lthumb 6.50921 46.8616
rfemur -11.7604 -0.24019 21.5042
rtibia 34.5477
rfoot -23.1324 -5.65344
rtoes 14.4234
lfemur -11.243 3.42005 -10.196
ltibia 29.0132
lfoot -12.5187 2.93773
ltoes -12.0617
2846
root 48.9515 16.6335 -6.04773 3328.91 -88.3363 991.884
lowerback 0.736497 -0.266907 -0.384647
upperback 4.43775 -0.40467 -0.650785
thorax 4.15155 -0.235159 -0.469211
lowerneck -10.4705 -1.82201 -2.13621
upperneck 0.298233 -2.46485 5.88054
head 2.03331 -1.10563 2.15099
rclavicle 3.67752e-015 7.95139e-016
rhumerus -29.9651 -0.856754 -87.3818
rradius 27.1912
rwrist -4.29634
rhand -24.7451 3.04003
rfingers 7.12502
rthumb 1.75773 -26.9325
lclavicle 3.67752e-015 7.95139e-016
lhumerus -22.5864 -10.0792 88.2004
lradius 40.3946
lwrist 17.026
lhand -19.8132 17.1573
lfingers 7.12502
lthumb 6.52013 47.0369
rfemur -11.7808 -0.58373 21.6345
rtibia 34.5635
rfoot -23.1399 -5.56741
rtoes 14.5542
lfemur -11.7041 3.69713 -10.16
ltibia 29.6201
lfoot -12.7368 3.05927
ltoes -12.776
2847
root 48.9611 16.6311 -6.07662 3320.53 -88.2626 1000.24
lowerback 0.75218 -0.287845 -0.21981
upperback 4.47519 -0.437483 -0.608477
thorax 4.18064 -0.246585 -0.519007
lowerneck -10.4751 -1.84837 -2.13154
upperneck 0.26074 -2.50075 5.9084
head 2.02382 -1.12353 2.15731
rclavicle -1.49089e-015 4.77083e-015
rhumerus -29.9078 -0.964402 -87.3134
rradius 26.9616
rwrist -4.17653
rhand -24.7433 3.07914
rfingers 7.12502
rthumb 1.75949 -26.8933
lclavicle -1.49089e-015 4.77083e-015
lhumerus -22.5784 -9.77216 88.2777
lradius 39.7734
lwrist 16.8247
lhand -19.8716 17.3477
lfingers 7.12502
lthumb 6.46378 47.2291
rfemur -11.7733 -0.921999 21.7733
rtibia 34.5724
rfoot -23.1398 -5.47643
rtoes 14.6567
lfemur -12.1385 3.99576 -10.1298
ltibia 30.2567
lfoot -13.0196 3.09376
ltoes -13.5246
2848
root 48.9705 16.6286 -6.10407 3312.78 -88.1431 1007.96
lowerback 0.77272 -0.310945 -0.0469351
upperback 4.51069 -0.473591 -0.559512
thorax 4.20483 -0.259415 -0.566485
lowerneck -10.4771 -1.87685 -2.12839
upperneck 0.230083 -2.53932 5.93406
head 2.01624 -1.14269 2.16309
rclavicle -3.97569e-015 -2.78299e-015
rhumerus -29.8653 -1.04462 -87.2433
rradius 26.7636
rwrist -4.09195
rhand -24.7281 3.10557
rfingers 7.12502
rthumb 1.77416 -26.8668
lclavicle -3.97569e-015 -2.78299e-015
lhumerus -22.5726 -9.43359 88.3567
lradius 39.1118
lwrist 16.5853
lhand -19.9877 17.539
lfingers 7.12502
lthumb 6.35172 47.4238
rfemur -11.7572 -1.25584 21.919
rtibia 34.5752
rfoot -23.1384 -5.40309
rtoes 14.7301
lfemur -12.5713 4.31039 -10.1105
ltibia 30.916
lfoot -13.3258 2.99542
ltoes -14.2897
